# xmcd CD database file
#
# Track frame offsets:
#	150
#	15132
#	32182
#	49170
#	66700
#	83525
#	101560
#	120997
#	142497
#	160395
#	166452
#	184440
#	204165
#	224025
#	244865
#	264727
#	282442
#	296097
#
# Disc length: 4219 seconds
#
# Revision: 0
# Processed by: cddbd v1.5.1PL2 Copyright (c) Steve Scherf et al.
# Submitted via: CDex 1.51
#
DISCID=1c107912
DTITLE=岩井小百合 - Dream Box CD4
DYEAR=2005
DGENRE=J-Pop
TTITLE0=いたずら天使
TTITLE1=もっとGOING LOVE
TTITLE2=DANCE WITH ME
TTITLE3=横浜グローイング　アップ
TTITLE4=アウトバーンより愛をこめて
TTITLE5=私の異星人
TTITLE6=小さな想い
TTITLE7=あの頃にThanks
TTITLE8=LONELY CHRISTMAS SONGS
TTITLE9=いつか・・・きっと・・・
TTITLE10=Star dust Drive
TTITLE11=Silent Beauty
TTITLE12=潮風に抱かれて
TTITLE13=悲しいテレパシー
TTITLE14=恋するボーイハント
TTITLE15=Southern Island〜きらめきの風の中で〜
TTITLE16=One shot Love
TTITLE17=ときめきの海
EXTD=YEAR: 2005
EXTT0=
EXTT1=
EXTT2=
EXTT3=
EXTT4=
EXTT5=
EXTT6=
EXTT7=
EXTT8=
EXTT9=
EXTT10=
EXTT11=
EXTT12=
EXTT13=
EXTT14=
EXTT15=
EXTT16=
EXTT17=
PLAYORDER=
